<?xml version="1.0" encoding="utf-8"?>
<svg xmlns="http://www.w3.org/2000/svg" viewBox="0 0 24 24" width="96" height="96">
  <path d="M12 1.9277344C11.659623 1.9276781 11.319354 2.008972 11.009766 2.171875L11.007812 2.171875L2 6.4492188L2 7.0800781L2 17.478516L11.009766 21.753906C11.628506 22.079262 12.371057 22.079712 12.990234 21.753906C12.990234 21.753906 12.992188 21.753906 12.992188 21.753906L22 17.476562L22 6.4492188L12.990234 2.171875C12.680864 2.0091971 12.340377 1.9277906 12 1.9277344 z M 11.941406 3.9414062C11.977866 3.9221782 12.021896 3.9210833 12.060547 3.9414062L12.078125 3.9511719L18.59375 7.0449219L16.619141 7.9121094L9.9316406 4.8964844L11.923828 3.9511719L11.941406 3.9414062 z M 7.5585938 6.0234375L14.154297 8.9941406L12.089844 9.9003906L12.060547 9.9160156C12.021897 9.9363386 11.977857 9.9371998 11.941406 9.9179688L11.910156 9.9003906L5.40625 7.0449219L7.5585938 6.0234375 z M 4 8.6113281L11 11.685547L11 19.537109L4 16.214844L4 8.6113281 z M 20 8.6113281L20 16.212891L13 19.535156L13 11.685547L20 8.6113281 z" fill="#DEE2E6" />
</svg>