<?xml version="1.0" encoding="utf-8"?>
<svg xmlns="http://www.w3.org/2000/svg" viewBox="0 0 100 100" width="500" height="500">
  <path fill="#78a0cf" d="M13,27c-1.105,0-2,0.895-2,2s0.895,2,2,2s2-0.895,2-2S14.105,27,13,27z" />
  <path fill="#f1bc19" d="M77,12c-0.551,0-1,0.449-1,1s0.449,1,1,1s1-0.449,1-1S77.551,12,77,12z" />
  <path fill="#cee1f4" d="M50,13c-20.434,0-37,16.566-37,37s16.566,37,37,37s37-16.566,37-37S70.434,13,50,13z" />
  <path fill="#f1bc19" d="M83,11c-2.211,0-4,1.789-4,4s1.789,4,4,4s4-1.789,4-4S85.211,11,83,11z" />
  <path fill="#78a0cf" d="M87,22c-1.105,0-2,0.895-2,2s0.895,2,2,2s2-0.895,2-2S88.105,22,87,22z" />
  <path fill="#fbcd59" d="M81,74c-1.105,0-2,0.895-2,2s0.895,2,2,2s2-0.895,2-2S82.105,74,81,74z M15,59c-2.211,0-4,1.789-4,4s1.789,4,4,4s4-1.789,4-4S17.211,59,15,59z" />
  <path fill="#78a0cf" d="M25,85c-1.105,0-2,0.895-2,2s0.895,2,2,2s2-0.895,2-2S26.105,85,25,85z" />
  <path fill="#fff" d="M17.5,42c-1.379,0-2.5,1.121-2.5,2.5s1.121,2.5,2.5,2.5s2.5-1.121,2.5-2.5S18.879,42,17.5,42z" />
  <path fill="#f1bc19" d="M21,65c-0.551,0-1,0.449-1,1s0.449,1,1,1s1-0.449,1-1S21.551,65,21,65z" />
  <path fill="#fff" d="M82,37c-0.551,0-1,0.449-1,1s0.449,1,1,1s1-0.449,1-1S82.551,37,82,37z" />
  <path fill="#836f61" d="M70.877,72.993h-0.42v-0.62l-2.52-3.88l-4.23-6.5l4.3-21.49l2.32-11.63l0.67-0.41l7,11.19 c0.13,0.22,0.18,0.48,0.13,0.73l-6.27,31.8C71.767,72.653,71.357,72.993,70.877,72.993z" />
  <path fill="#bd977c" d="M67.937,68.493l2.52,3.88v0.62h-12.24c-0.32,0-0.63-0.16-0.81-0.42l-4.52-6.33l0.69-0.5l-2.37-3.75 h12.5L67.937,68.493z" />
  <polygon fill="#836f61" points="54.707,47.493 51.847,59.243 51.827,59.243 48.577,54.613 48.577,54.493 50.457,47.493" />
  <polygon fill="#bd977c" points="51.207,61.993 53.577,65.743 52.887,66.243 52.707,65.993 48.827,65.993 48.827,65.373 43.217,57.493 43.207,57.493 41.077,54.493 48.577,54.493 48.577,54.613 51.827,59.243 51.847,59.243 51.207,61.873" />
  <path fill="#836f61" d="M48.827,65.373v0.62h-0.12l-2.75,6.39c-0.09,0.23-0.27,0.41-0.49,0.51l-0.26-0.4l-10-10.5l1.02-3.49 l1.17-3.99l2.06-7.02h3.75l-2.13,7l2.13,3h0.01L48.827,65.373z" />
  <path fill="#bd977c" d="M35.207,61.993l10,10.5l0.26,0.4c-0.13,0.07-0.27,0.1-0.42,0.1h-11.93c-0.27,0-0.52-0.11-0.71-0.29 l-10.2-10.21l0.5-0.5H35.207z" />
  <path fill="#c0d078" d="M22.707,61.993l-0.5,0.5l-0.07-0.07c-0.27-0.26-0.36-0.65-0.25-1.01l3.59-11.09l0.6,0.2h5.13 l-1.25,3.97l-1.25,4h7.5l0.02,0.01l-1.02,3.49H22.707z" />
  <polygon fill="#c0d078" points="37.397,54.513 36.227,58.503 36.207,58.493 28.707,58.493 29.957,54.493 37.327,54.493" />
  <path fill="#c0d078" d="M44.957,27.993v0.62l-2,6.88h-11.63l-0.95-0.31l2.1-6.5c0.13-0.41,0.52-0.69,0.95-0.69 L44.957,27.993z" />
  <path fill="#836f61" d="M45.207,27.993c0.31,0,0.61,0.15,0.8,0.4l5.7,7.6l0.75,0.5l-1.08,3.98l-0.55,2.02h-6.62l2-7h-3.25 l2-6.88v-0.62H45.207z" />
  <path fill="#c0d078" d="M62.827,34.493l-1.25,6h-10.12l-0.08-0.02l1.08-3.98l-0.75-0.5l0.72-1.45 c0.17-0.34,0.51-0.55,0.89-0.55h3.13l0.63,0.5H62.827z" />
  <path fill="#c0d078" d="M70.147,27.993c0.35,0,0.67,0.18,0.85,0.47l-0.67,0.41l-2.32,11.63l-0.05-0.01h-6.38l1.25-6h-5.75 l-0.63-0.5l1.09-5.21c0.1-0.46,0.5-0.79,0.98-0.79H70.147z" />
  <polygon fill="#c0d078" points="68.007,40.503 63.707,61.993 51.207,61.993 51.207,61.873 51.847,59.243 54.707,47.493 50.457,47.493 48.577,54.493 41.077,54.493 43.207,47.493 39.457,47.493 37.397,54.513 37.327,54.493 29.957,54.493 31.207,50.523 26.077,50.523 25.477,50.323 30.377,35.183 31.327,35.493 42.957,35.493 46.207,35.493 44.207,42.493 50.827,42.493 51.377,40.473 51.457,40.493 61.577,40.493 67.957,40.493" />
  <path fill="#472b29" d="M58.92,29.075h0.005H58.92 M33.824,29.116h0.005H33.824 M69.94,29.393l6.795,10.873l-6.17,31.327 H58.436l-4.581-6.414c-0.263-0.368-0.687-0.586-1.139-0.586h-4c-0.56,0-1.066,0.334-1.287,0.849l-2.636,6.151H33.296l-9.984-9.984 l10.423-32.216h11.281l5.58,7.44c0.266,0.354,0.682,0.56,1.12,0.56c0.042,0,0.084-0.002,0.126-0.006 c0.483-0.044,0.909-0.334,1.126-0.768l0.613-1.226h2.877c0.663,0,1.234-0.464,1.37-1.113l1.024-4.887L69.94,29.393 M53.692,35.172 h0.005H53.692 M70.162,27.993H58.528c-0.473,0-0.882,0.332-0.979,0.795l-1.09,5.205h-3.125c-0.379,0-0.725,0.214-0.894,0.553 l-0.724,1.447l-5.7-7.6c-0.189-0.252-0.485-0.4-0.8-0.4H33.444c-0.434,0-0.818,0.28-0.951,0.692L21.904,61.411 c-0.116,0.357-0.021,0.749,0.244,1.015L32.422,72.7c0.189,0.188,0.443,0.293,0.708,0.293h11.926c0.4,0,0.762-0.238,0.919-0.606 l2.741-6.394h4l4.701,6.581c0.188,0.263,0.491,0.419,0.814,0.419h12.663c0.478,0,0.889-0.338,0.981-0.807l6.265-31.805 c0.049-0.249,0.001-0.508-0.133-0.723L71.01,28.463C70.827,28.171,70.507,27.993,70.162,27.993L70.162,27.993z" />
  <path fill="#472b29" d="M45.216,72.993c-0.132,0-0.264-0.052-0.362-0.155l-10-10.5c-0.19-0.2-0.183-0.516,0.018-0.707 c0.2-0.189,0.516-0.184,0.707,0.018l10,10.5c0.19,0.2,0.183,0.516-0.018,0.707C45.464,72.947,45.34,72.993,45.216,72.993z" />
  <path fill="#472b29" d="M28.341,62.493h-5.625c-0.276,0-0.5-0.224-0.5-0.5s0.224-0.5,0.5-0.5h5.625 c0.276,0,0.5,0.224,0.5,0.5S28.617,62.493,28.341,62.493z" />
  <path fill="#472b29" d="M35.341,62.493h-3c-0.276,0-0.5-0.224-0.5-0.5s0.224-0.5,0.5-0.5h3c0.276,0,0.5,0.224,0.5,0.5 S35.617,62.493,35.341,62.493z" />
  <path fill="#472b29" d="M37.341,54.993h-4c-0.276,0-0.5-0.224-0.5-0.5s0.224-0.5,0.5-0.5h4c0.276,0,0.5,0.224,0.5,0.5 S37.617,54.993,37.341,54.993z" />
  <path fill="#472b29" d="M50.841,42.993h-6.625c-0.157,0-0.305-0.074-0.399-0.199c-0.094-0.125-0.125-0.288-0.082-0.438 l1.818-6.363h-7.212c-0.276,0-0.5-0.224-0.5-0.5s0.224-0.5,0.5-0.5h7.875c0.157,0,0.305,0.074,0.399,0.199 c0.094,0.125,0.125,0.288,0.082,0.438l-1.818,6.363h5.579l1.525-5.631c0.072-0.267,0.345-0.426,0.613-0.352 c0.267,0.072,0.424,0.347,0.352,0.613l-1.625,6C51.264,42.842,51.067,42.993,50.841,42.993z" />
  <path fill="#472b29" d="M62.841,34.993h-5.75c-0.276,0-0.5-0.224-0.5-0.5s0.224-0.5,0.5-0.5h5.75c0.276,0,0.5,0.224,0.5,0.5 S63.117,34.993,62.841,34.993z" />
  <path fill="#472b29" d="M56.341,40.993h-4.875c-0.276,0-0.5-0.224-0.5-0.5s0.224-0.5,0.5-0.5h4.875 c0.276,0,0.5,0.224,0.5,0.5S56.617,40.993,56.341,40.993z" />
  <path fill="#472b29" d="M67.841,40.993h-8.5c-0.276,0-0.5-0.224-0.5-0.5s0.224-0.5,0.5-0.5h8.5c0.276,0,0.5,0.224,0.5,0.5 S68.117,40.993,67.841,40.993z" />
  <path fill="#472b29" d="M48.841,65.868c-0.156,0-0.31-0.073-0.408-0.21l-7.75-10.875c-0.108-0.152-0.123-0.353-0.037-0.519 c0.086-0.167,0.258-0.271,0.445-0.271h7.5c0.276,0,0.5,0.224,0.5,0.5s-0.224,0.5-0.5,0.5h-6.53l7.187,10.085 c0.16,0.225,0.108,0.537-0.117,0.697C49.043,65.838,48.942,65.868,48.841,65.868z" />
  <path fill="#472b29" d="M51.841,59.743c-0.157,0-0.312-0.074-0.41-0.212l-3.25-4.625c-0.159-0.226-0.104-0.538,0.122-0.697 s0.538-0.104,0.697,0.122l3.25,4.625c0.159,0.226,0.104,0.538-0.122,0.697C52.041,59.714,51.941,59.743,51.841,59.743z" />
  <path fill="#472b29" d="M33.341,58.993h-4.625c-0.159,0-0.309-0.076-0.403-0.204s-0.122-0.294-0.074-0.446l2.296-7.318 h-4.444c-0.276,0-0.5-0.224-0.5-0.5s0.224-0.5,0.5-0.5h5.125c0.159,0,0.309,0.076,0.403,0.204s0.122,0.294,0.074,0.446 l-2.296,7.318h3.944c0.276,0,0.5,0.224,0.5,0.5S33.617,58.993,33.341,58.993z" />
  <path fill="#472b29" d="M42.966,35.993c-0.046,0-0.093-0.006-0.14-0.02c-0.265-0.077-0.417-0.354-0.34-0.62l2-6.875 c0.077-0.266,0.353-0.418,0.62-0.34c0.265,0.077,0.417,0.354,0.34,0.62l-2,6.875C43.383,35.851,43.183,35.993,42.966,35.993z" />
  <path fill="#472b29" d="M35.216,62.493c-0.046,0-0.094-0.006-0.141-0.02c-0.265-0.078-0.417-0.355-0.339-0.621l4.25-14.5 c0.078-0.265,0.356-0.415,0.621-0.339c0.265,0.078,0.417,0.355,0.339,0.621l-4.25,14.5C35.632,62.352,35.432,62.493,35.216,62.493z" />
  <path fill="#472b29" d="M53.591,66.243c-0.166,0-0.328-0.082-0.423-0.232l-2.375-3.75c-0.098-0.154-0.104-0.349-0.016-0.509 s0.256-0.259,0.438-0.259h3.126c0.276,0,0.5,0.224,0.5,0.5s-0.224,0.5-0.5,0.5h-2.216l1.889,2.982 c0.148,0.233,0.079,0.542-0.155,0.69C53.776,66.218,53.683,66.243,53.591,66.243z" />
  <path fill="#472b29" d="M58.341,62.493h-2c-0.276,0-0.5-0.224-0.5-0.5s0.224-0.5,0.5-0.5h2c0.276,0,0.5,0.224,0.5,0.5 S58.617,62.493,58.341,62.493z" />
  <path fill="#472b29" d="M63.716,62.493h-2.375c-0.276,0-0.5-0.224-0.5-0.5s0.224-0.5,0.5-0.5h1.965L69.85,28.77 c0.054-0.271,0.312-0.448,0.588-0.392c0.271,0.054,0.446,0.317,0.392,0.588l-6.625,33.125 C64.159,62.325,63.954,62.493,63.716,62.493z" />
  <path fill="#472b29" d="M61.591,40.993c-0.034,0-0.068-0.003-0.103-0.011c-0.271-0.056-0.444-0.321-0.387-0.591l1.25-6 c0.056-0.271,0.315-0.446,0.591-0.387c0.271,0.056,0.444,0.321,0.387,0.591l-1.25,6C62.031,40.831,61.823,40.993,61.591,40.993z" />
  <path fill="#472b29" d="M70.466,72.868c-0.164,0-0.324-0.08-0.419-0.228l-6.75-10.375c-0.151-0.231-0.085-0.541,0.146-0.691 c0.231-0.151,0.541-0.084,0.691,0.146l6.75,10.375c0.151,0.231,0.085,0.541-0.146,0.691C70.654,72.842,70.56,72.868,70.466,72.868z" />
  <path fill="#472b29" d="M51.216,62.368c-0.039,0-0.079-0.004-0.119-0.014c-0.269-0.065-0.433-0.336-0.368-0.604l3.5-14.375 c0.065-0.269,0.335-0.435,0.604-0.368c0.269,0.065,0.433,0.336,0.368,0.604l-3.5,14.375C51.646,62.215,51.442,62.368,51.216,62.368 z" />
  <path fill="#472b29" d="M48.591,54.993c-0.043,0-0.086-0.005-0.13-0.017c-0.267-0.071-0.425-0.346-0.354-0.612l1.875-7 c0.06-0.219,0.257-0.371,0.484-0.371h4.25c0.276,0,0.5,0.224,0.5,0.5s-0.224,0.5-0.5,0.5H50.85l-1.776,6.629 C49.014,54.846,48.812,54.993,48.591,54.993z" />
  <path fill="#472b29" d="M41.091,54.993c-0.048,0-0.097-0.007-0.145-0.021c-0.265-0.08-0.414-0.359-0.333-0.624l1.929-6.355 h-3.076c-0.276,0-0.5-0.224-0.5-0.5s0.224-0.5,0.5-0.5h3.75c0.158,0,0.307,0.075,0.402,0.202c0.094,0.127,0.123,0.292,0.077,0.443 l-2.125,7C41.504,54.854,41.306,54.993,41.091,54.993z" />
  <path fill="#472b29" d="M38.341,65.993h-4.125c-0.276,0-0.5-0.224-0.5-0.5s0.224-0.5,0.5-0.5h4.125 c0.276,0,0.5,0.224,0.5,0.5S38.617,65.993,38.341,65.993z" />
  <path fill="#472b29" d="M46.216,57.993h-3c-0.276,0-0.5-0.224-0.5-0.5s0.224-0.5,0.5-0.5h3c0.276,0,0.5,0.224,0.5,0.5 S46.492,57.993,46.216,57.993z" />
  <path fill="#472b29" d="M35.341,35.993h-4.375c-0.276,0-0.5-0.224-0.5-0.5s0.224-0.5,0.5-0.5h4.375 c0.276,0,0.5,0.224,0.5,0.5S35.617,35.993,35.341,35.993z" />
  <path fill="#472b29" d="M70.091,65.618c-0.017,0-0.034-0.001-0.052-0.005c-0.135-0.028-0.222-0.161-0.193-0.296 l3.625-17.375c0.028-0.135,0.16-0.224,0.296-0.193c0.135,0.028,0.222,0.161,0.193,0.296L70.335,65.42 C70.311,65.537,70.207,65.618,70.091,65.618z" />
  <path fill="#472b29" d="M74.216,45.868c-0.017,0-0.033-0.001-0.049-0.005c-0.136-0.027-0.224-0.159-0.196-0.294l0.875-4.375 c0.027-0.136,0.165-0.225,0.294-0.196c0.136,0.027,0.224,0.159,0.196,0.294l-0.875,4.375 C74.437,45.786,74.333,45.868,74.216,45.868z" />
</svg>