<?xml version="1.0" encoding="utf-8"?>
<svg xmlns="http://www.w3.org/2000/svg" viewBox="0 0 24 24" width="96" height="96">
  <path d="M5 3C3.9069372 3 3 3.9069372 3 5L3 9C3 10.093063 3.9069372 11 5 11L9 11C10.093063 11 11 10.093063 11 9L11 5C11 3.9069372 10.093063 3 9 3L5 3 z M 15 3C13.906937 3 13 3.9069372 13 5L13 9C13 10.093063 13.906937 11 15 11L19 11C20.093063 11 21 10.093063 21 9L21 5C21 3.9069372 20.093063 3 19 3L15 3 z M 5 5L9 5L9 9L5 9L5 5 z M 15 5L19 5L19 9L15 9L15 5 z M 5 13C3.9069372 13 3 13.906937 3 15L3 19C3 20.093063 3.9069372 21 5 21L9 21C10.093063 21 11 20.093063 11 19L11 15C11 13.906937 10.093063 13 9 13L5 13 z M 15 13C13.906937 13 13 13.906937 13 15L13 19C13 20.093063 13.906937 21 15 21L19 21C20.093063 21 21 20.093063 21 19L21 15C21 13.906937 20.093063 13 19 13L15 13 z M 5 15L9 15L9 19L5 19L5 15 z M 15 15L19 15L19 19L15 19L15 15 z" fill="#DEE2E6" />
</svg>